<svg width="18" height="18" viewBox="0 0 18 18" fill="none" xmlns="http://www.w3.org/2000/svg">
<g id="license">
<path id="Vector" d="M15.3749 10.5V7.5C15.3749 4.67157 15.3749 3.25736 14.4963 2.37868C13.6176 1.5 12.2034 1.5 9.37492 1.5H8.625C5.79662 1.5 4.38242 1.5 3.50375 2.37867C2.62506 3.25734 2.62505 4.67154 2.62503 7.49995L2.625 10.4999C2.62498 13.3284 2.62496 14.7426 3.50365 15.6213C4.38233 16.5 5.79655 16.5 8.625 16.5H9.37492C12.2034 16.5 13.6176 16.5 14.4963 15.6213C15.3749 14.7427 15.3749 13.3284 15.3749 10.5Z" stroke="#FDEB56" stroke-width="1.2" stroke-linecap="round" stroke-linejoin="round"/>
<path id="Vector_2" d="M6 5.25H12M6 9H12M6 12.75H9" stroke="#FDEB56" stroke-width="1.2" stroke-linecap="round" stroke-linejoin="round"/>
</g>
</svg>
