<svg width="20" height="20" viewBox="0 0 20 20" fill="none" xmlns="http://www.w3.org/2000/svg">
<g id="dashboard-square-02">
<path id="Vector" d="M1.66666 5.00002C1.66666 3.42867 1.66666 2.643 2.15482 2.15485C2.64297 1.66669 3.42865 1.66669 5 1.66669C6.57135 1.66669 7.35702 1.66669 7.84517 2.15485C8.33333 2.643 8.33333 3.42867 8.33333 5.00002V6.66669C8.33333 8.23804 8.33333 9.02369 7.84517 9.51185C7.35702 10 6.57135 10 5 10C3.42865 10 2.64297 10 2.15482 9.51185C1.66666 9.02369 1.66666 8.23804 1.66666 6.66669V5.00002Z" stroke="#FDEB56" stroke-width="1.5"/>
<path id="Vector_2" d="M1.66666 15.8333C1.66666 15.0567 1.66666 14.6685 1.79353 14.3621C1.96269 13.9538 2.28715 13.6293 2.69552 13.4601C3.00181 13.3333 3.3901 13.3333 4.16666 13.3333H5.83333C6.6099 13.3333 6.99818 13.3333 7.30447 13.4601C7.71285 13.6293 8.03731 13.9538 8.20646 14.3621C8.33333 14.6685 8.33333 15.0567 8.33333 15.8333C8.33333 16.6099 8.33333 16.9981 8.20646 17.3045C8.03731 17.7128 7.71285 18.0373 7.30447 18.2065C6.99818 18.3333 6.6099 18.3333 5.83333 18.3333H4.16666C3.3901 18.3333 3.00181 18.3333 2.69552 18.2065C2.28715 18.0373 1.96269 17.7128 1.79353 17.3045C1.66666 16.9981 1.66666 16.6099 1.66666 15.8333Z" stroke="#FDEB56" stroke-width="1.5"/>
<path id="Vector_3" d="M11.6667 13.3333C11.6667 11.762 11.6667 10.9763 12.1548 10.4882C12.643 10 13.4287 10 15 10C16.5713 10 17.357 10 17.8452 10.4882C18.3333 10.9763 18.3333 11.762 18.3333 13.3333V15C18.3333 16.5713 18.3333 17.357 17.8452 17.8452C17.357 18.3333 16.5713 18.3333 15 18.3333C13.4287 18.3333 12.643 18.3333 12.1548 17.8452C11.6667 17.357 11.6667 16.5713 11.6667 15V13.3333Z" stroke="#FDEB56" stroke-width="1.5"/>
<path id="Vector_4" d="M11.6667 4.16669C11.6667 3.39012 11.6667 3.00184 11.7935 2.69555C11.9627 2.28717 12.2872 1.96271 12.6955 1.79355C13.0018 1.66669 13.3901 1.66669 14.1667 1.66669H15.8333C16.6099 1.66669 16.9982 1.66669 17.3045 1.79355C17.7128 1.96271 18.0373 2.28717 18.2065 2.69555C18.3333 3.00184 18.3333 3.39012 18.3333 4.16669C18.3333 4.94325 18.3333 5.33154 18.2065 5.63783C18.0373 6.0462 17.7128 6.37066 17.3045 6.53982C16.9982 6.66669 16.6099 6.66669 15.8333 6.66669H14.1667C13.3901 6.66669 13.0018 6.66669 12.6955 6.53982C12.2872 6.37066 11.9627 6.0462 11.7935 5.63783C11.6667 5.33154 11.6667 4.94325 11.6667 4.16669Z" stroke="#FDEB56" stroke-width="1.5"/>
</g>
</svg>
