<svg width="20" height="20" viewBox="0 0 20 20" fill="none" xmlns="http://www.w3.org/2000/svg">
<g id="dashboard-square-02">
<path id="Vector" d="M1.66667 5.00008C1.66667 3.42873 1.66667 2.64306 2.15483 2.15491C2.64298 1.66675 3.42866 1.66675 5.00001 1.66675C6.57135 1.66675 7.35703 1.66675 7.84518 2.15491C8.33334 2.64306 8.33334 3.42873 8.33334 5.00008V6.66675C8.33334 8.2381 8.33334 9.02375 7.84518 9.51191C7.35703 10.0001 6.57135 10.0001 5.00001 10.0001C3.42866 10.0001 2.64298 10.0001 2.15483 9.51191C1.66667 9.02375 1.66667 8.2381 1.66667 6.66675V5.00008Z" stroke="#D4CFD6" stroke-width="1.5"/>
<path id="Vector_2" d="M1.66667 15.8333C1.66667 15.0567 1.66667 14.6684 1.79354 14.3621C1.9627 13.9538 2.28716 13.6293 2.69553 13.4601C3.00182 13.3333 3.39011 13.3333 4.16667 13.3333H5.83334C6.6099 13.3333 6.99819 13.3333 7.30448 13.4601C7.71286 13.6293 8.03731 13.9538 8.20647 14.3621C8.33334 14.6684 8.33334 15.0567 8.33334 15.8333C8.33334 16.6098 8.33334 16.9981 8.20647 17.3044C8.03731 17.7128 7.71286 18.0373 7.30448 18.2064C6.99819 18.3333 6.6099 18.3333 5.83334 18.3333H4.16667C3.39011 18.3333 3.00182 18.3333 2.69553 18.2064C2.28716 18.0373 1.9627 17.7128 1.79354 17.3044C1.66667 16.9981 1.66667 16.6098 1.66667 15.8333Z" stroke="#D4CFD6" stroke-width="1.5"/>
<path id="Vector_3" d="M11.6667 13.3333C11.6667 11.762 11.6667 10.9763 12.1548 10.4882C12.643 10 13.4287 10 15 10C16.5713 10 17.357 10 17.8452 10.4882C18.3333 10.9763 18.3333 11.762 18.3333 13.3333V15C18.3333 16.5713 18.3333 17.357 17.8452 17.8452C17.357 18.3333 16.5713 18.3333 15 18.3333C13.4287 18.3333 12.643 18.3333 12.1548 17.8452C11.6667 17.357 11.6667 16.5713 11.6667 15V13.3333Z" stroke="#D4CFD6" stroke-width="1.5"/>
<path id="Vector_4" d="M11.6667 4.16675C11.6667 3.39018 11.6667 3.0019 11.7935 2.69561C11.9627 2.28723 12.2872 1.96277 12.6955 1.79361C13.0018 1.66675 13.3901 1.66675 14.1667 1.66675H15.8333C16.6099 1.66675 16.9982 1.66675 17.3045 1.79361C17.7128 1.96277 18.0373 2.28723 18.2065 2.69561C18.3333 3.0019 18.3333 3.39018 18.3333 4.16675C18.3333 4.94331 18.3333 5.3316 18.2065 5.63789C18.0373 6.04626 17.7128 6.37072 17.3045 6.53988C16.9982 6.66675 16.6099 6.66675 15.8333 6.66675H14.1667C13.3901 6.66675 13.0018 6.66675 12.6955 6.53988C12.2872 6.37072 11.9627 6.04626 11.7935 5.63789C11.6667 5.3316 11.6667 4.94331 11.6667 4.16675Z" stroke="#D4CFD6" stroke-width="1.5"/>
</g>
</svg>
