<svg width="20" height="20" viewBox="0 0 20 20" fill="none" xmlns="http://www.w3.org/2000/svg">
<g id="game">
<path id="Vector" d="M1.66667 12.0833C1.66667 9.34367 1.66667 7.9739 2.42331 7.05194C2.56182 6.88316 2.71658 6.7284 2.88536 6.58989C3.80732 5.83325 5.1771 5.83325 7.91667 5.83325H12.0833C14.8229 5.83325 16.1927 5.83325 17.1147 6.58989C17.2834 6.7284 17.4382 6.88316 17.5767 7.05194C18.3333 7.9739 18.3333 9.34367 18.3333 12.0833C18.3333 14.8228 18.3333 16.1926 17.5767 17.1146C17.4382 17.2833 17.2834 17.4381 17.1147 17.5766C16.1927 18.3333 14.8229 18.3333 12.0833 18.3333H7.91667C5.1771 18.3333 3.80732 18.3333 2.88536 17.5766C2.71658 17.4381 2.56182 17.2833 2.42331 17.1146C1.66667 16.1926 1.66667 14.8228 1.66667 12.0833Z" stroke="#FDEB56" stroke-width="1.5" stroke-linecap="round"/>
<path id="Vector_2" d="M10 5.83341V4.16675C10 3.70651 10.3731 3.33341 10.8333 3.33341C11.2936 3.33341 11.6667 2.96031 11.6667 2.50008V1.66675" stroke="#FDEB56" stroke-width="1.5" stroke-linecap="round" stroke-linejoin="round"/>
<path id="Vector_3" d="M8.33333 13.3333L7.08333 12.0833M7.08333 12.0833L5.83333 10.8333M7.08333 12.0833L5.83333 13.3333M7.08333 12.0833L8.33333 10.8333" stroke="#FDEB56" stroke-width="1.5" stroke-linecap="round"/>
<path id="Vector_4" d="M14.1667 12.9167V11.25" stroke="#FDEB56" stroke-width="1.5" stroke-linecap="round" stroke-linejoin="round"/>
</g>
</svg>
