<svg width="20" height="20" viewBox="0 0 20 20" fill="none" xmlns="http://www.w3.org/2000/svg">
<g id="game">
<path id="Vector" d="M1.66666 12.0833C1.66666 9.34373 1.66666 7.97396 2.4233 7.052C2.56181 6.88322 2.71657 6.72846 2.88536 6.58995C3.80731 5.83331 5.1771 5.83331 7.91666 5.83331H12.0833C14.8229 5.83331 16.1927 5.83331 17.1147 6.58995C17.2834 6.72846 17.4382 6.88322 17.5767 7.052C18.3333 7.97396 18.3333 9.34373 18.3333 12.0833C18.3333 14.8229 18.3333 16.1926 17.5767 17.1146C17.4382 17.2834 17.2834 17.4381 17.1147 17.5766C16.1927 18.3333 14.8229 18.3333 12.0833 18.3333H7.91666C5.1771 18.3333 3.80731 18.3333 2.88536 17.5766C2.71657 17.4381 2.56181 17.2834 2.4233 17.1146C1.66666 16.1926 1.66666 14.8229 1.66666 12.0833Z" stroke="#D4CFD6" stroke-width="1.5" stroke-linecap="round"/>
<path id="Vector_2" d="M10 5.83329V4.16663C10 3.70639 10.3731 3.33329 10.8333 3.33329C11.2936 3.33329 11.6667 2.96019 11.6667 2.49996V1.66663" stroke="#D4CFD6" stroke-width="1.5" stroke-linecap="round" stroke-linejoin="round"/>
<path id="Vector_3" d="M8.33334 13.3333L7.08334 12.0833M7.08334 12.0833L5.83334 10.8333M7.08334 12.0833L5.83334 13.3333M7.08334 12.0833L8.33334 10.8333" stroke="#D4CFD6" stroke-width="1.5" stroke-linecap="round"/>
<path id="Vector_4" d="M14.1667 12.9166V11.2499" stroke="#D4CFD6" stroke-width="1.5" stroke-linecap="round" stroke-linejoin="round"/>
</g>
</svg>
