<svg width="18" height="18" viewBox="0 0 18 18" fill="none" xmlns="http://www.w3.org/2000/svg">
<g id="arrange">
<path id="Vector" d="M2.25 3.375C2.25 2.75368 2.75368 2.25 3.375 2.25H4.875C5.49632 2.25 6 2.75368 6 3.375V4.875C6 5.49632 5.49632 6 4.875 6H3.375C2.75368 6 2.25 5.49632 2.25 4.875V3.375Z" stroke="#FDEB56" stroke-width="1.2"/>
<path id="Vector_2" d="M2.25 13.125C2.25 12.5037 2.75368 12 3.375 12H4.875C5.49632 12 6 12.5037 6 13.125V14.625C6 15.2463 5.49632 15.75 4.875 15.75H3.375C2.75368 15.75 2.25 15.2463 2.25 14.625V13.125Z" stroke="#FDEB56" stroke-width="1.2"/>
<path id="Vector_3" d="M6.00002 13.875H15.75M12 4.125H6.00002M12.2426 5.75737L5.73651 12.2635" stroke="#FDEB56" stroke-width="1.2" stroke-linecap="round" stroke-linejoin="round"/>
<path id="Vector_4" d="M12 3.375C12 2.75368 12.5037 2.25 13.125 2.25H14.625C15.2463 2.25 15.75 2.75368 15.75 3.375V4.875C15.75 5.49632 15.2463 6 14.625 6H13.125C12.5037 6 12 5.49632 12 4.875V3.375Z" stroke="#FDEB56" stroke-width="1.2"/>
<path id="Vector_5" d="M13.5 15.75L14.5412 15.0403C15.3471 14.491 15.75 14.2163 15.75 13.875C15.75 13.5337 15.3471 13.259 14.5412 12.7097L13.5 12" stroke="#FDEB56" stroke-width="1.2" stroke-linecap="round" stroke-linejoin="round"/>
</g>
</svg>
