<svg width="20" height="20" viewBox="0 0 20 20" fill="none" xmlns="http://www.w3.org/2000/svg">
<g id="gameboy">
<path id="Vector" d="M12.0833 5C12.7304 5 13.054 5 13.3092 5.10573C13.6495 5.24668 13.9199 5.51707 14.0608 5.85738C14.1666 6.11263 14.1666 6.43619 14.1666 7.08333C14.1666 7.73047 14.1666 8.05404 14.0608 8.30928C13.9199 8.64958 13.6495 8.92 13.3092 9.06092C13.054 9.16667 12.7304 9.16667 12.0833 9.16667H7.91659C7.26944 9.16667 6.94588 9.16667 6.69064 9.06092C6.35032 8.92 6.07994 8.64958 5.93898 8.30928C5.83325 8.05404 5.83325 7.73047 5.83325 7.08333C5.83325 6.43619 5.83325 6.11263 5.93898 5.85738C6.07994 5.51707 6.35032 5.24668 6.69064 5.10573C6.94588 5 7.26944 5 7.91659 5H12.0833Z" stroke="#D4CFD6" stroke-width="1.5" stroke-linecap="round"/>
<path id="Vector_2" d="M9.16659 14.1667H7.49992M7.49992 14.1667H5.83325M7.49992 14.1667V15.8333M7.49992 14.1667V12.5" stroke="#D4CFD6" stroke-width="1.5" stroke-linecap="round"/>
<path id="Vector_3" d="M14.1667 15V13.3334" stroke="#D4CFD6" stroke-width="1.5" stroke-linecap="round" stroke-linejoin="round"/>
<path id="Vector_4" d="M17.5 10.8333V9.16663C17.5 6.04185 17.5 4.47946 16.7042 3.38418C16.4472 3.03046 16.1362 2.71938 15.7824 2.46238C14.6872 1.66663 13.1247 1.66663 10 1.66663C6.87522 1.66663 5.31283 1.66663 4.21756 2.46238C3.86383 2.71938 3.55276 3.03046 3.29576 3.38418C2.5 4.47946 2.5 6.04185 2.5 9.16663V10.8333C2.5 13.958 2.5 15.5205 3.29576 16.6157C3.55276 16.9695 3.86383 17.2805 4.21756 17.5375C5.31283 18.3333 6.87522 18.3333 10 18.3333C13.1247 18.3333 14.6872 18.3333 15.7824 17.5375C16.1362 17.2805 16.4472 16.9695 16.7042 16.6157C17.5 15.5205 17.5 13.958 17.5 10.8333Z" stroke="#D4CFD6" stroke-width="1.5" stroke-linecap="round"/>
</g>
</svg>
