<svg width="20" height="20" viewBox="0 0 20 20" fill="none" xmlns="http://www.w3.org/2000/svg">
<g id="gameboy">
<path id="Vector" d="M12.0833 5C12.7304 5 13.054 5 13.3092 5.10573C13.6495 5.24668 13.9199 5.51707 14.0608 5.85738C14.1666 6.11263 14.1666 6.43619 14.1666 7.08333C14.1666 7.73047 14.1666 8.05404 14.0608 8.30928C13.9199 8.64958 13.6495 8.92 13.3092 9.06092C13.054 9.16667 12.7304 9.16667 12.0833 9.16667H7.91659C7.26944 9.16667 6.94588 9.16667 6.69064 9.06092C6.35032 8.92 6.07994 8.64958 5.93898 8.30928C5.83325 8.05404 5.83325 7.73047 5.83325 7.08333C5.83325 6.43619 5.83325 6.11263 5.93898 5.85738C6.07994 5.51707 6.35032 5.24668 6.69064 5.10573C6.94588 5 7.26944 5 7.91659 5H12.0833Z" stroke="#FDEB56" stroke-width="1.5" stroke-linecap="round"/>
<path id="Vector_2" d="M9.16659 14.1667H7.49992M7.49992 14.1667H5.83325M7.49992 14.1667V15.8333M7.49992 14.1667V12.5" stroke="#FDEB56" stroke-width="1.5" stroke-linecap="round"/>
<path id="Vector_3" d="M14.1667 15V13.3333" stroke="#FDEB56" stroke-width="1.5" stroke-linecap="round" stroke-linejoin="round"/>
<path id="Vector_4" d="M17.5 10.8334V9.16669C17.5 6.04191 17.5 4.47952 16.7042 3.38425C16.4472 3.03052 16.1362 2.71945 15.7824 2.46245C14.6872 1.66669 13.1247 1.66669 10 1.66669C6.87522 1.66669 5.31283 1.66669 4.21756 2.46245C3.86383 2.71945 3.55276 3.03052 3.29576 3.38425C2.5 4.47952 2.5 6.04191 2.5 9.16669V10.8334C2.5 13.9581 2.5 15.5205 3.29576 16.6158C3.55276 16.9695 3.86383 17.2806 4.21756 17.5376C5.31283 18.3334 6.87522 18.3334 10 18.3334C13.1247 18.3334 14.6872 18.3334 15.7824 17.5376C16.1362 17.2806 16.4472 16.9695 16.7042 16.6158C17.5 15.5205 17.5 13.9581 17.5 10.8334Z" stroke="#FDEB56" stroke-width="1.5" stroke-linecap="round"/>
</g>
</svg>
