<svg width="20" height="20" viewBox="0 0 20 20" fill="none" xmlns="http://www.w3.org/2000/svg">
<g id="analytics-01">
<path id="Vector" d="M5.83337 14.1666V10.8333" stroke="#FDEB56" stroke-width="1.5" stroke-linecap="round"/>
<path id="Vector_2" d="M10 14.1666V5.83331" stroke="#FDEB56" stroke-width="1.5" stroke-linecap="round"/>
<path id="Vector_3" d="M14.1666 14.1667V9.16669" stroke="#FDEB56" stroke-width="1.5" stroke-linecap="round"/>
<path id="Vector_4" d="M2.08337 9.99998C2.08337 6.26803 2.08337 4.40205 3.24274 3.24268C4.40212 2.08331 6.26809 2.08331 10 2.08331C13.732 2.08331 15.598 2.08331 16.7574 3.24268C17.9167 4.40205 17.9167 6.26803 17.9167 9.99998C17.9167 13.7319 17.9167 15.5979 16.7574 16.7573C15.598 17.9166 13.732 17.9166 10 17.9166C6.26809 17.9166 4.40212 17.9166 3.24274 16.7573C2.08337 15.5979 2.08337 13.7319 2.08337 9.99998Z" stroke="#FDEB56" stroke-width="1.5" stroke-linejoin="round"/>
</g>
</svg>
