<svg width="20" height="20" viewBox="0 0 20 20" fill="none" xmlns="http://www.w3.org/2000/svg">
<g id="analytics-01">
<path id="Vector" d="M5.83337 14.1667V10.8334" stroke="#D4CFD6" stroke-width="1.5" stroke-linecap="round"/>
<path id="Vector_2" d="M10 14.1667V5.83337" stroke="#D4CFD6" stroke-width="1.5" stroke-linecap="round"/>
<path id="Vector_3" d="M14.1666 14.1666V9.16663" stroke="#D4CFD6" stroke-width="1.5" stroke-linecap="round"/>
<path id="Vector_4" d="M2.08337 10C2.08337 6.26809 2.08337 4.40212 3.24274 3.24274C4.40212 2.08337 6.26809 2.08337 10 2.08337C13.732 2.08337 15.598 2.08337 16.7574 3.24274C17.9167 4.40212 17.9167 6.26809 17.9167 10C17.9167 13.732 17.9167 15.598 16.7574 16.7574C15.598 17.9167 13.732 17.9167 10 17.9167C6.26809 17.9167 4.40212 17.9167 3.24274 16.7574C2.08337 15.598 2.08337 13.732 2.08337 10Z" stroke="#D4CFD6" stroke-width="1.5" stroke-linejoin="round"/>
</g>
</svg>
