<svg width="20" height="20" viewBox="0 0 20 20" fill="none" xmlns="http://www.w3.org/2000/svg">
<g id="user-group-02">
<path id="Vector" d="M6.25 16.25C6.25 15.4454 6.52378 14.6314 7.19243 14.1837C7.99434 13.6468 8.96033 13.3334 10 13.3334C11.0397 13.3334 12.0057 13.6468 12.8076 14.1837C13.4762 14.6314 13.75 15.4454 13.75 16.25" stroke="#D4CFD6" stroke-width="1.5" stroke-linecap="round" stroke-linejoin="round"/>
<path id="Vector_2" d="M9.99996 11.25C11.1506 11.25 12.0833 10.3173 12.0833 9.16671C12.0833 8.01611 11.1506 7.08337 9.99996 7.08337C8.84937 7.08337 7.91663 8.01611 7.91663 9.16671C7.91663 10.3173 8.84937 11.25 9.99996 11.25Z" stroke="#D4CFD6" stroke-width="1.5" stroke-linecap="round" stroke-linejoin="round"/>
<path id="Vector_3" d="M14.5834 9.16663C15.5085 9.16663 16.368 9.48071 17.0812 10.0186C17.6858 10.4746 17.9167 11.2459 17.9167 12.0031V12.0833" stroke="#D4CFD6" stroke-width="1.5" stroke-linecap="round" stroke-linejoin="round"/>
<path id="Vector_4" d="M14.5833 7.08333C15.5038 7.08333 16.25 6.33714 16.25 5.41667C16.25 4.49619 15.5038 3.75 14.5833 3.75C13.6628 3.75 12.9166 4.49619 12.9166 5.41667C12.9166 6.33714 13.6628 7.08333 14.5833 7.08333Z" stroke="#D4CFD6" stroke-width="1.5" stroke-linecap="round" stroke-linejoin="round"/>
<path id="Vector_5" d="M5.41671 9.16663C4.4916 9.16663 3.63209 9.48071 2.91884 10.0186C2.31426 10.4746 2.08337 11.2459 2.08337 12.0031V12.0833" stroke="#D4CFD6" stroke-width="1.5" stroke-linecap="round" stroke-linejoin="round"/>
<path id="Vector_6" d="M5.41667 7.08333C6.33714 7.08333 7.08333 6.33714 7.08333 5.41667C7.08333 4.49619 6.33714 3.75 5.41667 3.75C4.49619 3.75 3.75 4.49619 3.75 5.41667C3.75 6.33714 4.49619 7.08333 5.41667 7.08333Z" stroke="#D4CFD6" stroke-width="1.5" stroke-linecap="round" stroke-linejoin="round"/>
</g>
</svg>
