<svg width="18" height="18" viewBox="0 0 18 18" fill="none" xmlns="http://www.w3.org/2000/svg">
<g id="news">
<path id="Vector" d="M13.5 11.25V6.75C13.5 4.62868 13.5 3.56802 12.841 2.90901C12.1819 2.25 11.1213 2.25 9 2.25H6C3.87868 2.25 2.81802 2.25 2.15901 2.90901C1.5 3.56802 1.5 4.62868 1.5 6.75V11.25C1.5 13.3713 1.5 14.4319 2.15901 15.091C2.81802 15.75 3.87868 15.75 6 15.75H15" stroke="#FDEB56" stroke-width="1.5" stroke-linecap="round" stroke-linejoin="round"/>
<path id="Vector_2" d="M4.5 6H10.5" stroke="#FDEB56" stroke-width="1.2" stroke-linecap="round" stroke-linejoin="round"/>
<path id="Vector_3" d="M4.5 9H10.5" stroke="#FDEB56" stroke-width="1.2" stroke-linecap="round" stroke-linejoin="round"/>
<path id="Vector_4" d="M4.5 12H7.5" stroke="#FDEB56" stroke-width="1.2" stroke-linecap="round" stroke-linejoin="round"/>
<path id="Vector_5" d="M13.5 6H14.25C15.3106 6 15.841 6 16.1705 6.3295C16.5 6.65901 16.5 7.18934 16.5 8.25V14.25C16.5 15.0784 15.8284 15.75 15 15.75C14.1716 15.75 13.5 15.0784 13.5 14.25V6Z" stroke="#FDEB56" stroke-width="1.2" stroke-linecap="round" stroke-linejoin="round"/>
</g>
</svg>
