<svg width="18" height="18" viewBox="0 0 18 18" fill="none" xmlns="http://www.w3.org/2000/svg">
<g id="link-01">
<path id="Vector" d="M6.85754 8.01824L7.01273 7.86306C8.49675 6.37898 10.9029 6.37898 12.3869 7.86306C13.871 9.34709 13.871 11.7532 12.3869 13.2373L10.2373 15.3869C8.75325 16.871 6.34709 16.871 4.86304 15.3869C3.37899 13.9029 3.37899 11.4967 4.86304 10.0127L5.2113 9.66449" stroke="#D4CFD6" stroke-width="1.2" stroke-linecap="round"/>
<path id="Vector_2" d="M12.7887 8.3355L13.1369 7.98727C14.621 6.50321 14.621 4.09709 13.1369 2.61304C11.6529 1.12899 9.24675 1.12899 7.76272 2.61304L5.61304 4.76273C4.12899 6.24678 4.12899 8.6529 5.61304 10.1369C7.09709 11.621 9.50325 11.621 10.9873 10.1369L11.1424 9.98175" stroke="#D4CFD6" stroke-width="1.2" stroke-linecap="round"/>
</g>
</svg>
