<svg width="18" height="18" viewBox="0 0 18 18" fill="none" xmlns="http://www.w3.org/2000/svg">
<g id="web-validation">
<path id="Vector" d="M15.7494 7.5C15.743 4.81157 15.6646 3.39611 14.7066 2.48852C13.6631 1.5 11.9837 1.5 8.625 1.5C5.26624 1.5 3.58687 1.5 2.54343 2.48852C1.5 3.47703 1.5 5.06802 1.5 8.25C1.5 11.4319 1.5 13.023 2.54343 14.0115C3.46322 14.8828 4.87717 14.9861 7.5 14.9984" stroke="#D4CFD6" stroke-width="1.2" stroke-linecap="round"/>
<path id="Vector_2" d="M11.25 13.125C11.25 13.125 11.625 13.125 12 13.875C12 13.875 13.1911 12 14.25 11.625" stroke="#D4CFD6" stroke-width="1.2" stroke-linecap="round" stroke-linejoin="round"/>
<path id="Vector_3" d="M16.5 12.75C16.5 14.821 14.821 16.5 12.75 16.5C10.679 16.5 9 14.821 9 12.75C9 10.679 10.679 9 12.75 9C14.821 9 16.5 10.679 16.5 12.75Z" stroke="#D4CFD6" stroke-width="1.2" stroke-linecap="round"/>
<path id="Vector_4" d="M1.5 6.375H15.75" stroke="#D4CFD6" stroke-width="1.2" stroke-linejoin="round"/>
<path id="Vector_5" d="M4.87488 4.125H4.88161" stroke="#D4CFD6" stroke-width="1.2" stroke-linecap="round" stroke-linejoin="round"/>
<path id="Vector_6" d="M7.87488 4.125H7.88163" stroke="#D4CFD6" stroke-width="1.2" stroke-linecap="round" stroke-linejoin="round"/>
</g>
</svg>
