<svg width="20" height="20" viewBox="0 0 20 20" fill="none" xmlns="http://www.w3.org/2000/svg">
<g id="quiz-03">
<path id="Vector" d="M6.25004 2.91663C4.95354 2.95552 4.18055 3.09983 3.64569 3.63518C2.91345 4.3681 2.91345 5.54771 2.91345 7.90693V13.3286C2.91345 15.6879 2.91345 16.8675 3.64569 17.6004C4.37792 18.3333 5.55644 18.3333 7.91345 18.3333H12.0801C14.4371 18.3333 15.6156 18.3333 16.3479 17.6004C17.0801 16.8675 17.0801 15.6879 17.0801 13.3286V7.90693C17.0801 5.54771 17.0801 4.3681 16.3479 3.63519C15.813 3.09983 15.04 2.95552 13.7435 2.91663" stroke="#D4CFD6" stroke-width="1.5"/>
<path id="Vector_2" d="M6.2467 3.12496C6.2467 2.31954 6.89963 1.66663 7.70504 1.66663H12.2884C13.0938 1.66663 13.7467 2.31954 13.7467 3.12496C13.7467 3.93038 13.0938 4.58329 12.2884 4.58329H7.70504C6.89963 4.58329 6.2467 3.93038 6.2467 3.12496Z" stroke="#D4CFD6" stroke-width="1.5" stroke-linejoin="round"/>
<path id="Vector_3" d="M5.41663 8.33337H8.74996" stroke="#D4CFD6" stroke-width="1.5" stroke-linecap="round"/>
<path id="Vector_4" d="M11.25 9.16667C11.25 9.16667 11.6667 9.16667 12.0833 10C12.0833 10 13.4068 7.91667 14.5833 7.5" stroke="#D4CFD6" stroke-width="1.5" stroke-linecap="round" stroke-linejoin="round"/>
<path id="Vector_5" d="M5.41663 13.3334H8.74996" stroke="#D4CFD6" stroke-width="1.5" stroke-linecap="round"/>
<path id="Vector_6" d="M11.25 14.1667C11.25 14.1667 11.6667 14.1667 12.0833 15C12.0833 15 13.4068 12.9167 14.5833 12.5" stroke="#D4CFD6" stroke-width="1.5" stroke-linecap="round" stroke-linejoin="round"/>
</g>
</svg>
