<svg width="20" height="20" viewBox="0 0 20 20" fill="none" xmlns="http://www.w3.org/2000/svg">
<g id="crown">
<path id="Vector" d="M2.93182 8.58813C2.60844 7.69309 2.44675 7.24559 2.5157 6.95883C2.59111 6.64518 2.81416 6.40066 3.09927 6.31909C3.35994 6.24451 3.76544 6.42473 4.57644 6.78518C5.29377 7.10401 5.65244 7.26342 5.98943 7.25455C6.36047 7.24478 6.7174 7.09599 7.00133 6.83272C7.25921 6.5936 7.43217 6.21257 7.77811 5.45049L8.5405 3.771C9.17733 2.36808 9.49575 1.66663 10 1.66663C10.5042 1.66663 10.8227 2.36808 11.4595 3.771L12.2219 5.45049C12.5678 6.21257 12.7408 6.5936 12.9987 6.83272C13.2826 7.09599 13.6395 7.24478 14.0106 7.25455C14.3476 7.26342 14.7062 7.10401 15.4236 6.78518C16.2346 6.42473 16.6401 6.24451 16.9007 6.31909C17.1858 6.40066 17.4089 6.64518 17.4843 6.95883C17.5532 7.24559 17.3916 7.69309 17.0682 8.58804L15.6782 12.4351C15.0835 14.0808 14.7862 14.9036 14.164 15.3685C13.5418 15.8333 12.7378 15.8333 11.1298 15.8333H8.87016C7.26216 15.8333 6.45814 15.8333 5.83596 15.3685C5.21378 14.9036 4.91647 14.0808 4.32185 12.4351L2.93182 8.58813Z" stroke="#D4CFD6" stroke-width="1.5"/>
<path id="Vector_2" d="M10 11.6666H10.0075" stroke="#D4CFD6" stroke-width="2" stroke-linecap="round" stroke-linejoin="round"/>
<path id="Vector_3" d="M5.83337 18.3334H14.1667" stroke="#D4CFD6" stroke-width="1.5" stroke-linecap="round"/>
</g>
</svg>
