<svg width="20" height="20" viewBox="0 0 20 20" fill="none" xmlns="http://www.w3.org/2000/svg">
<g id="crown">
<path id="Vector" d="M2.93182 8.58819C2.60844 7.69315 2.44675 7.24565 2.5157 6.9589C2.59111 6.64525 2.81416 6.40072 3.09927 6.31915C3.35994 6.24457 3.76544 6.4248 4.57644 6.78525C5.29377 7.10407 5.65244 7.26348 5.98943 7.25461C6.36047 7.24485 6.7174 7.09605 7.00133 6.83278C7.25921 6.59366 7.43217 6.21263 7.77811 5.45055L8.5405 3.77106C9.17733 2.36815 9.49575 1.66669 10 1.66669C10.5042 1.66669 10.8227 2.36815 11.4595 3.77106L12.2219 5.45055C12.5678 6.21263 12.7408 6.59366 12.9987 6.83278C13.2826 7.09605 13.6395 7.24485 14.0106 7.25461C14.3476 7.26348 14.7062 7.10407 15.4236 6.78525C16.2346 6.4248 16.6401 6.24457 16.9007 6.31915C17.1858 6.40072 17.4089 6.64525 17.4843 6.9589C17.5532 7.24565 17.3916 7.69315 17.0682 8.5881L15.6782 12.4352C15.0835 14.0809 14.7862 14.9037 14.164 15.3685C13.5418 15.8334 12.7378 15.8334 11.1298 15.8334H8.87016C7.26216 15.8334 6.45814 15.8334 5.83596 15.3685C5.21378 14.9037 4.91647 14.0809 4.32185 12.4352L2.93182 8.58819Z" stroke="#FDEB56" stroke-width="1.5"/>
<path id="Vector_2" d="M10 11.6667H10.0075" stroke="#FDEB56" stroke-width="2" stroke-linecap="round" stroke-linejoin="round"/>
<path id="Vector_3" d="M5.83337 18.3333H14.1667" stroke="#FDEB56" stroke-width="1.5" stroke-linecap="round"/>
</g>
</svg>
