<svg width="20" height="20" viewBox="0 0 20 20" fill="none" xmlns="http://www.w3.org/2000/svg">
<g id="adventure">
<path id="Vector" d="M5.47048 16.3009C4.98232 16.789 4.19086 16.789 3.70271 16.3009C3.21455 15.8127 3.21455 15.0212 3.70271 14.5331C4.19086 14.045 4.98232 14.045 5.47048 14.5331C5.95863 15.0212 5.95863 15.8127 5.47048 16.3009Z" stroke="#D4CFD6" stroke-width="1.5"/>
<path id="Vector_2" d="M5.00327 10H5.31291C5.75493 10 6.17886 10.1756 6.49142 10.4882L9.51509 13.5118C9.82767 13.8244 10.0033 14.2483 10.0033 14.6903V15" stroke="#D4CFD6" stroke-width="1.5" stroke-linecap="round" stroke-linejoin="round"/>
<path id="Vector_3" d="M8.75858 12.4997L15.4633 6.97813C15.7406 6.74973 15.9373 6.43834 16.0245 6.08977L16.6615 3.54166C16.6922 3.41876 16.5809 3.30745 16.458 3.33817L13.9099 3.9752C13.5613 4.06234 13.2499 4.25905 13.0215 4.5364L7.5 11.2411" stroke="#D4CFD6" stroke-width="1.5" stroke-linecap="round" stroke-linejoin="round"/>
<path id="Vector_4" d="M11.5909 2.41078C10.7167 1.91493 10.2796 1.667 10.0006 1.66699C9.72158 1.66698 9.28442 1.91489 8.41008 2.41072C7.56426 2.89035 6.67812 3.18685 5.81364 3.36959C4.09728 3.73243 3.23909 3.91384 2.86954 4.36138C2.5 4.80893 2.5 5.51087 2.5 6.91475V8.30203M10.0005 18.3337C10.2605 18.3337 10.5205 18.2992 10.773 18.2305C11.1819 18.1192 11.5666 17.8797 12.3359 17.4007C14.0545 16.3307 14.9137 15.7957 15.5649 15.1087C16.3692 14.2601 16.9482 13.24 17.2537 12.1339C17.4616 11.381 17.4947 10.5694 17.5 9.16699" stroke="#D4CFD6" stroke-width="1.5" stroke-linecap="round" stroke-linejoin="round"/>
<path id="Vector_5" d="M5.41667 14.583L7.91667 12.083" stroke="#D4CFD6" stroke-width="1.5" stroke-linejoin="round"/>
</g>
</svg>
