<svg width="20" height="20" viewBox="0 0 20 20" fill="none" xmlns="http://www.w3.org/2000/svg">
<g id="adventure">
<path id="Vector" d="M5.47048 16.2999C4.98232 16.788 4.19086 16.788 3.70271 16.2999C3.21455 15.8117 3.21455 15.0202 3.70271 14.5321C4.19086 14.044 4.98232 14.044 5.47048 14.5321C5.95863 15.0202 5.95863 15.8117 5.47048 16.2999Z" stroke="#FDEB56" stroke-width="1.5"/>
<path id="Vector_2" d="M5.00326 10H5.3129C5.75492 10 6.17885 10.1756 6.49141 10.4882L9.51508 13.5118C9.82767 13.8244 10.0032 14.2483 10.0032 14.6903V15" stroke="#FDEB56" stroke-width="1.5" stroke-linecap="round" stroke-linejoin="round"/>
<path id="Vector_3" d="M8.75858 12.5006L15.4633 6.97911C15.7406 6.75071 15.9373 6.43931 16.0245 6.09075L16.6615 3.54264C16.6922 3.41974 16.5809 3.30842 16.458 3.33915L13.9099 3.97617C13.5613 4.06331 13.2499 4.26003 13.0215 4.53737L7.5 11.2421" stroke="#FDEB56" stroke-width="1.5" stroke-linecap="round" stroke-linejoin="round"/>
<path id="Vector_4" d="M11.5909 2.40981C10.7167 1.91396 10.2796 1.66602 10.0006 1.66602C9.72158 1.66601 9.28442 1.91392 8.41008 2.40974C7.56426 2.88937 6.67812 3.18587 5.81364 3.36862C4.09728 3.73145 3.23909 3.91287 2.86954 4.36041C2.5 4.80795 2.5 5.50989 2.5 6.91377V8.30106M10.0005 18.3327C10.2605 18.3327 10.5205 18.2983 10.773 18.2295C11.1819 18.1182 11.5666 17.8787 12.3359 17.3997C14.0545 16.3297 14.9137 15.7948 15.5649 15.1077C16.3692 14.2591 16.9482 13.239 17.2537 12.1329C17.4616 11.38 17.4947 10.5684 17.5 9.16602" stroke="#FDEB56" stroke-width="1.5" stroke-linecap="round" stroke-linejoin="round"/>
<path id="Vector_5" d="M5.41666 14.584L7.91666 12.084" stroke="#FDEB56" stroke-width="1.5" stroke-linejoin="round"/>
</g>
</svg>
