<svg width="16" height="16" viewBox="0 0 16 16" fill="none" xmlns="http://www.w3.org/2000/svg">
<g id="pause">
<path id="Vector" d="M2.66663 4.66663C2.66663 3.72382 2.66663 3.25241 2.95952 2.95952C3.25241 2.66663 3.72382 2.66663 4.66663 2.66663C5.60943 2.66663 6.08084 2.66663 6.37373 2.95952C6.66663 3.25241 6.66663 3.72382 6.66663 4.66663V11.3333C6.66663 12.2761 6.66663 12.7475 6.37373 13.0404C6.08084 13.3333 5.60943 13.3333 4.66663 13.3333C3.72382 13.3333 3.25241 13.3333 2.95952 13.0404C2.66663 12.7475 2.66663 12.2761 2.66663 11.3333V4.66663Z" stroke="#DBC405" stroke-width="1.2"/>
<path id="Vector_2" d="M9.33337 4.66663C9.33337 3.72382 9.33337 3.25241 9.62624 2.95952C9.91917 2.66663 10.3906 2.66663 11.3334 2.66663C12.2762 2.66663 12.7476 2.66663 13.0405 2.95952C13.3334 3.25241 13.3334 3.72382 13.3334 4.66663V11.3333C13.3334 12.2761 13.3334 12.7475 13.0405 13.0404C12.7476 13.3333 12.2762 13.3333 11.3334 13.3333C10.3906 13.3333 9.91917 13.3333 9.62624 13.0404C9.33337 12.7475 9.33337 12.2761 9.33337 11.3333V4.66663Z" stroke="#DBC405" stroke-width="1.2"/>
</g>
</svg>
