<svg width="20" height="20" viewBox="0 0 20 20" fill="none" xmlns="http://www.w3.org/2000/svg">
<g id="icons8-discord (3)">
<path id="Vector" d="M16.6663 4.9987C16.6663 4.9987 14.7559 3.5037 12.4997 3.33203L12.2963 3.7387C14.3363 4.23786 15.2722 4.95328 16.2497 5.83203C14.5643 4.97161 12.9001 4.16536 9.99967 4.16536C7.09926 4.16536 5.43509 4.97161 3.74967 5.83203C4.72717 4.95328 5.84051 4.15911 7.70301 3.7387L7.49967 3.33203C5.13259 3.55578 3.33301 4.9987 3.33301 4.9987C3.33301 4.9987 1.19926 8.09245 0.833008 14.1654C2.98384 16.6458 6.24967 16.6654 6.24967 16.6654L6.93259 15.7549C5.77342 15.352 4.46426 14.6324 3.33301 13.332C4.68217 14.3529 6.71842 15.4154 9.99967 15.4154C13.2809 15.4154 15.3172 14.3529 16.6663 13.332C15.5351 14.6324 14.2259 15.352 13.0668 15.7549L13.7497 16.6654C13.7497 16.6654 17.0155 16.6458 19.1663 14.1654C18.8001 8.09245 16.6663 4.9987 16.6663 4.9987ZM7.29134 12.4987C6.48592 12.4987 5.83301 11.7524 5.83301 10.832C5.83301 9.91161 6.48592 9.16536 7.29134 9.16536C8.09676 9.16536 8.74967 9.91161 8.74967 10.832C8.74967 11.7524 8.09676 12.4987 7.29134 12.4987ZM12.708 12.4987C11.9026 12.4987 11.2497 11.7524 11.2497 10.832C11.2497 9.91161 11.9026 9.16536 12.708 9.16536C13.5134 9.16536 14.1663 9.91161 14.1663 10.832C14.1663 11.7524 13.5134 12.4987 12.708 12.4987Z" fill="#8C9EFF"/>
</g>
</svg>
