<svg width="20" height="20" viewBox="0 0 20 20" fill="none" xmlns="http://www.w3.org/2000/svg">
<g id="icons8-youtube (1) 2">
<g id="Group 1171275561">
<path id="Vector" d="M10.0048 2C6.66396 2 5.68689 2.00345 5.49697 2.0192C4.81137 2.07619 4.38475 2.18414 3.91997 2.41554C3.56179 2.5934 3.2793 2.79958 3.00051 3.08858C2.49277 3.61564 2.18505 4.26407 2.07366 5.03484C2.0195 5.40903 2.00375 5.48534 2.00055 7.39664C1.99932 8.03374 2.00055 8.87221 2.00055 9.99686C2.00055 13.335 2.00424 14.3111 2.02024 14.5006C2.07563 15.1678 2.18025 15.5875 2.40181 16.0466C2.82523 16.9254 3.63392 17.5852 4.58661 17.8314C4.91649 17.9163 5.28082 17.9631 5.74856 17.9852C5.94673 17.9938 7.96659 18 9.98768 18C12.0088 18 14.0299 17.9975 14.2231 17.9877C14.7647 17.9622 15.0792 17.92 15.4269 17.8301C15.8993 17.709 16.3395 17.4862 16.7169 17.1773C17.0943 16.8684 17.3996 16.4808 17.6117 16.0417C17.829 15.5936 17.9391 15.1579 17.989 14.5256C17.9998 14.3878 18.0044 12.1898 18.0044 9.99477C18.0044 7.79938 17.9994 5.60547 17.9886 5.46762C17.9381 4.8251 17.828 4.39306 17.6037 3.93641C17.4197 3.56259 17.2154 3.28343 16.9187 2.99799C16.3895 2.49235 15.742 2.18463 14.9704 2.07336C14.5966 2.01932 14.5221 2.00332 12.6093 2H10.0048Z" fill="url(#paint0_radial_222_8778)"/>
<path id="Vector_2" d="M10.0048 2C6.66396 2 5.68689 2.00345 5.49697 2.0192C4.81137 2.07619 4.38475 2.18414 3.91997 2.41554C3.56179 2.5934 3.2793 2.79958 3.00051 3.08858C2.49277 3.61564 2.18505 4.26407 2.07366 5.03484C2.0195 5.40903 2.00375 5.48534 2.00055 7.39664C1.99932 8.03374 2.00055 8.87221 2.00055 9.99686C2.00055 13.335 2.00424 14.3111 2.02024 14.5006C2.07563 15.1678 2.18025 15.5875 2.40181 16.0466C2.82523 16.9254 3.63392 17.5852 4.58661 17.8314C4.91649 17.9163 5.28082 17.9631 5.74856 17.9852C5.94673 17.9938 7.96659 18 9.98768 18C12.0088 18 14.0299 17.9975 14.2231 17.9877C14.7647 17.9622 15.0792 17.92 15.4269 17.8301C15.8993 17.709 16.3395 17.4862 16.7169 17.1773C17.0943 16.8684 17.3996 16.4808 17.6117 16.0417C17.829 15.5936 17.9391 15.1579 17.989 14.5256C17.9998 14.3878 18.0044 12.1898 18.0044 9.99477C18.0044 7.79938 17.9994 5.60547 17.9886 5.46762C17.9381 4.8251 17.828 4.39306 17.6037 3.93641C17.4197 3.56259 17.2154 3.28343 16.9187 2.99799C16.3895 2.49235 15.742 2.18463 14.9704 2.07336C14.5966 2.01932 14.5221 2.00332 12.6093 2H10.0048Z" fill="url(#paint1_radial_222_8778)"/>
<path id="Vector_3" d="M10.0013 4.09277C8.39677 4.09277 8.1954 4.09979 7.56519 4.12847C6.93621 4.15727 6.50689 4.25685 6.13122 4.40295C5.74264 4.55386 5.41301 4.75572 5.08461 5.08424C4.75597 5.41264 4.5541 5.74227 4.40271 6.13073C4.25623 6.50652 4.15653 6.93597 4.12822 7.5647C4.10016 8.19491 4.09277 8.3964 4.09277 10.001C4.09277 11.6055 4.09991 11.8063 4.12847 12.4365C4.15739 13.0655 4.25697 13.4948 4.40295 13.8705C4.55398 14.259 4.75584 14.5887 5.08437 14.9171C5.41264 15.2457 5.74227 15.4481 6.13061 15.599C6.50652 15.7451 6.93597 15.8447 7.56482 15.8735C8.19503 15.9021 8.39628 15.9092 10.0007 15.9092C11.6054 15.9092 11.8062 15.9021 12.4364 15.8735C13.0653 15.8447 13.4952 15.7451 13.8711 15.599C14.2595 15.4481 14.5887 15.2457 14.917 14.9171C15.2456 14.5887 15.4475 14.259 15.5989 13.8706C15.7441 13.4948 15.8438 13.0653 15.8733 12.4366C15.9016 11.8064 15.909 11.6055 15.909 10.001C15.909 8.3964 15.9016 8.19503 15.8733 7.56482C15.8438 6.93584 15.7441 6.50652 15.5989 6.13085C15.4475 5.74227 15.2456 5.41264 14.917 5.08424C14.5883 4.7556 14.2597 4.55374 13.8707 4.40295C13.4941 4.25685 13.0645 4.15727 12.4355 4.12847C11.8053 4.09979 11.6047 4.09277 9.99961 4.09277H10.0013ZM9.47132 5.15748C9.62863 5.15723 9.80415 5.15748 10.0013 5.15748C11.5788 5.15748 11.7658 5.16314 12.3887 5.19145C12.9648 5.21779 13.2774 5.31405 13.4857 5.39491C13.7614 5.502 13.958 5.63001 14.1646 5.8368C14.3714 6.04358 14.4994 6.24052 14.6068 6.51624C14.6876 6.72426 14.784 7.0369 14.8102 7.61295C14.8385 8.23577 14.8447 8.42286 14.8447 9.99961C14.8447 11.5764 14.8385 11.7635 14.8102 12.3863C14.7839 12.9623 14.6876 13.275 14.6068 13.483C14.4997 13.7587 14.3714 13.955 14.1646 14.1617C13.9579 14.3685 13.7615 14.4965 13.4857 14.6036C13.2777 14.6848 12.9648 14.7808 12.3887 14.8072C11.7659 14.8355 11.5788 14.8416 10.0013 14.8416C8.42372 14.8416 8.23675 14.8355 7.61393 14.8072C7.03788 14.7806 6.72524 14.6843 6.51686 14.6034C6.24114 14.4964 6.0442 14.3684 5.83741 14.1616C5.63063 13.9548 5.50262 13.7583 5.39528 13.4825C5.31442 13.2745 5.21804 12.9618 5.19182 12.3858C5.16351 11.763 5.15785 11.5759 5.15785 9.99813C5.15785 8.4204 5.16351 8.23429 5.19182 7.61147C5.21816 7.03542 5.31442 6.72278 5.39528 6.51452C5.50237 6.2388 5.63063 6.04186 5.83741 5.83507C6.0442 5.62829 6.24114 5.50028 6.51686 5.39294C6.72512 5.31171 7.03788 5.2157 7.61393 5.18924C8.15896 5.16462 8.37018 5.15723 9.47132 5.156V5.15748ZM13.1551 6.13848C13.0148 6.13848 12.8778 6.18007 12.7612 6.25799C12.6446 6.3359 12.5537 6.44664 12.5 6.57621C12.4464 6.70577 12.4324 6.84834 12.4597 6.98587C12.4871 7.12341 12.5547 7.24974 12.6538 7.34888C12.753 7.44803 12.8794 7.51553 13.0169 7.54286C13.1545 7.57019 13.297 7.55611 13.4266 7.50241C13.5561 7.44871 13.6668 7.3578 13.7447 7.24118C13.8226 7.12455 13.8641 6.98746 13.8641 6.84722C13.8641 6.4558 13.5465 6.13824 13.1551 6.13824V6.13848ZM10.0013 6.96686C8.32575 6.96686 6.96723 8.32538 6.96723 10.001C6.96723 11.6766 8.32575 13.0345 10.0013 13.0345C11.6769 13.0345 13.0351 11.6766 13.0351 10.001C13.0351 8.32538 11.6769 6.96686 10.0013 6.96686ZM10.0013 8.03157C11.0889 8.03157 11.9707 8.91324 11.9707 10.001C11.9707 11.0886 11.0889 11.9704 10.0013 11.9704C8.91361 11.9704 8.03194 11.0886 8.03194 10.001C8.03194 8.91324 8.91361 8.03157 10.0013 8.03157Z" fill="white"/>
</g>
</g>
<defs>
<radialGradient id="paint0_radial_222_8778" cx="0" cy="0" r="1" gradientUnits="userSpaceOnUse" gradientTransform="translate(6.25118 19.2323) rotate(-90) scale(15.8572 14.7524)">
<stop stop-color="#FFDD55"/>
<stop offset="0.1" stop-color="#FFDD55"/>
<stop offset="0.5" stop-color="#FF543E"/>
<stop offset="1" stop-color="#C837AB"/>
</radialGradient>
<radialGradient id="paint1_radial_222_8778" cx="0" cy="0" r="1" gradientUnits="userSpaceOnUse" gradientTransform="translate(-0.680815 3.15261) rotate(78.6776) scale(7.0883 29.2256)">
<stop stop-color="#3771C8"/>
<stop offset="0.128" stop-color="#3771C8"/>
<stop offset="1" stop-color="#6600FF" stop-opacity="0"/>
</radialGradient>
</defs>
</svg>
