<svg width="20" height="20" viewBox="0 0 20 20" fill="none" xmlns="http://www.w3.org/2000/svg">
<g id="icons8-telegram (10)">
<path id="Vector" d="M10.0003 1.66797C7.79019 1.66797 5.67057 2.54594 4.10777 4.10875C2.54497 5.67155 1.66699 7.79116 1.66699 10.0013C1.66699 12.2114 2.54497 14.3311 4.10777 15.8939C5.67057 17.4567 7.79019 18.3346 10.0003 18.3346C12.2105 18.3346 14.3301 17.4567 15.8929 15.8939C17.4557 14.3311 18.3337 12.2114 18.3337 10.0013C18.3337 7.79116 17.4557 5.67155 15.8929 4.10875C14.3301 2.54594 12.2105 1.66797 10.0003 1.66797Z" fill="#29B6F6"/>
<path id="Vector_2" d="M14.1462 6.2487L12.5853 14.2179C12.5853 14.2179 12.5182 14.582 12.0666 14.582C11.8266 14.582 11.7028 14.4679 11.7028 14.4679L8.32199 11.6624L6.66783 10.8287L4.54491 10.2641C4.54491 10.2641 4.16699 10.1549 4.16699 9.84245C4.16699 9.58203 4.55574 9.45787 4.55574 9.45787L13.4374 5.92953C13.4374 5.92953 13.7087 5.83162 13.9066 5.83203C14.0282 5.83203 14.167 5.88412 14.167 6.04037C14.167 6.14453 14.1462 6.2487 14.1462 6.2487Z" fill="white"/>
<path id="Vector_3" d="M9.58367 12.7096L8.15617 14.1154C8.15617 14.1154 8.09409 14.1634 8.01117 14.1654C7.98242 14.1663 7.95159 14.1617 7.91992 14.1475L8.32159 11.6621L9.58367 12.7096Z" fill="#B0BEC5"/>
<path id="Vector_4" d="M12.4569 7.58162C12.3865 7.48996 12.2565 7.47329 12.1648 7.54287L6.6665 10.8333C6.6665 10.8333 7.544 13.2883 7.67775 13.7133C7.81192 14.1387 7.91942 14.1487 7.91942 14.1487L8.32109 11.6633L12.4178 7.87329C12.5094 7.80371 12.5265 7.67329 12.4569 7.58162Z" fill="#CFD8DC"/>
</g>
</svg>
