<svg width="20" height="20" viewBox="0 0 20 20" fill="none" xmlns="http://www.w3.org/2000/svg">
<g id="icons8-x (1)">
<path id="Vector" d="M4.4001 1.59961C2.8537 1.59961 1.6001 2.85321 1.6001 4.39961V15.5996C1.6001 17.146 2.8537 18.3996 4.4001 18.3996H15.6001C17.1465 18.3996 18.4001 17.146 18.4001 15.5996V4.39961C18.4001 2.85321 17.1465 1.59961 15.6001 1.59961H4.4001ZM5.23447 5.19961H8.40947L10.6642 8.40352L13.4001 5.19961H14.4001L11.1157 9.04492L15.1657 14.7996H11.9915L9.3751 11.0824L6.2001 14.7996H5.2001L8.92353 10.441L5.23447 5.19961ZM6.76572 5.99961L12.4087 13.9996H13.6345L7.9915 5.99961H6.76572Z" fill="#3D2644"/>
</g>
</svg>
