<svg width="20" height="20" viewBox="0 0 20 20" fill="none" xmlns="http://www.w3.org/2000/svg">
<g id="language_24dp_FILL1_wght400_GRAD0_opsz24">
<path id="Vector" d="M10.0003 18.3346C8.86144 18.3346 7.78505 18.1159 6.77116 17.6784C5.75727 17.2409 4.87185 16.6437 4.11491 15.8867C3.35796 15.1298 2.76074 14.2444 2.32324 13.2305C1.88574 12.2166 1.66699 11.1402 1.66699 10.0013C1.66699 8.84852 1.88574 7.76866 2.32324 6.76172C2.76074 5.75477 3.35796 4.87283 4.11491 4.11589C4.87185 3.35894 5.75727 2.76172 6.77116 2.32422C7.78505 1.88672 8.86144 1.66797 10.0003 1.66797C11.1531 1.66797 12.233 1.88672 13.2399 2.32422C14.2469 2.76172 15.1288 3.35894 15.8857 4.11589C16.6427 4.87283 17.2399 5.75477 17.6774 6.76172C18.1149 7.76866 18.3337 8.84852 18.3337 10.0013C18.3337 11.1402 18.1149 12.2166 17.6774 13.2305C17.2399 14.2444 16.6427 15.1298 15.8857 15.8867C15.1288 16.6437 14.2469 17.2409 13.2399 17.6784C12.233 18.1159 11.1531 18.3346 10.0003 18.3346ZM10.0003 16.6263C10.3614 16.1263 10.6739 15.6055 10.9378 15.0638C11.2017 14.5221 11.417 13.9457 11.5837 13.3346H8.41699C8.58366 13.9457 8.79894 14.5221 9.06283 15.0638C9.32671 15.6055 9.63921 16.1263 10.0003 16.6263ZM7.83366 16.293C7.58366 15.8346 7.36491 15.3589 7.17741 14.8659C6.98991 14.3728 6.83366 13.8624 6.70866 13.3346H4.25033C4.6531 14.0291 5.15658 14.6332 5.76074 15.1471C6.36491 15.661 7.05588 16.043 7.83366 16.293ZM12.167 16.293C12.9448 16.043 13.6357 15.661 14.2399 15.1471C14.8441 14.6332 15.3475 14.0291 15.7503 13.3346H13.292C13.167 13.8624 13.0107 14.3728 12.8232 14.8659C12.6357 15.3589 12.417 15.8346 12.167 16.293ZM3.54199 11.668H6.37533C6.33366 11.3902 6.30241 11.1159 6.28158 10.8451C6.26074 10.5742 6.25033 10.293 6.25033 10.0013C6.25033 9.70963 6.26074 9.42838 6.28158 9.15755C6.30241 8.88672 6.33366 8.61241 6.37533 8.33463H3.54199C3.47255 8.61241 3.42046 8.88672 3.38574 9.15755C3.35102 9.42838 3.33366 9.70963 3.33366 10.0013C3.33366 10.293 3.35102 10.5742 3.38574 10.8451C3.42046 11.1159 3.47255 11.3902 3.54199 11.668ZM8.04199 11.668H11.9587C12.0003 11.3902 12.0316 11.1159 12.0524 10.8451C12.0732 10.5742 12.0837 10.293 12.0837 10.0013C12.0837 9.70963 12.0732 9.42838 12.0524 9.15755C12.0316 8.88672 12.0003 8.61241 11.9587 8.33463H8.04199C8.00033 8.61241 7.96908 8.88672 7.94824 9.15755C7.92741 9.42838 7.91699 9.70963 7.91699 10.0013C7.91699 10.293 7.92741 10.5742 7.94824 10.8451C7.96908 11.1159 8.00033 11.3902 8.04199 11.668ZM13.6253 11.668H16.4587C16.5281 11.3902 16.5802 11.1159 16.6149 10.8451C16.6496 10.5742 16.667 10.293 16.667 10.0013C16.667 9.70963 16.6496 9.42838 16.6149 9.15755C16.5802 8.88672 16.5281 8.61241 16.4587 8.33463H13.6253C13.667 8.61241 13.6982 8.88672 13.7191 9.15755C13.7399 9.42838 13.7503 9.70963 13.7503 10.0013C13.7503 10.293 13.7399 10.5742 13.7191 10.8451C13.6982 11.1159 13.667 11.3902 13.6253 11.668ZM13.292 6.66797H15.7503C15.3475 5.97352 14.8441 5.36936 14.2399 4.85547C13.6357 4.34158 12.9448 3.95964 12.167 3.70964C12.417 4.16797 12.6357 4.64366 12.8232 5.13672C13.0107 5.62977 13.167 6.14019 13.292 6.66797ZM8.41699 6.66797H11.5837C11.417 6.05686 11.2017 5.48047 10.9378 4.9388C10.6739 4.39714 10.3614 3.8763 10.0003 3.3763C9.63921 3.8763 9.32671 4.39714 9.06283 4.9388C8.79894 5.48047 8.58366 6.05686 8.41699 6.66797ZM4.25033 6.66797H6.70866C6.83366 6.14019 6.98991 5.62977 7.17741 5.13672C7.36491 4.64366 7.58366 4.16797 7.83366 3.70964C7.05588 3.95964 6.36491 4.34158 5.76074 4.85547C5.15658 5.36936 4.6531 5.97352 4.25033 6.66797Z" fill="#30B8C0"/>
</g>
</svg>
