<svg width="60" height="80" viewBox="0 0 60 80" fill="none" xmlns="http://www.w3.org/2000/svg">
<rect x="0.5" y="0.5" width="59" height="79" rx="3.5" fill="white"/>
<rect x="0.5" y="0.5" width="59" height="79" rx="3.5" stroke="#E5D443" stroke-dasharray="4 4"/>
<rect x="5" y="6" width="50" height="68" rx="3" fill="#FAF6D9"/>
<path d="M26.625 37.75C27.2463 37.75 27.75 37.2463 27.75 36.625C27.75 36.0037 27.2463 35.5 26.625 35.5C26.0037 35.5 25.5 36.0037 25.5 36.625C25.5 37.2463 26.0037 37.75 26.625 37.75Z" stroke="#E5D443" stroke-width="1.2" stroke-linecap="round" stroke-linejoin="round"/>
<path d="M22.875 40C22.875 36.6412 22.875 34.9619 23.9184 33.9184C24.9619 32.875 26.6412 32.875 30 32.875C33.3587 32.875 35.0381 32.875 36.0816 33.9184C37.125 34.9619 37.125 36.6412 37.125 40C37.125 43.3587 37.125 45.0381 36.0816 46.0816C35.0381 47.125 33.3587 47.125 30 47.125C26.6412 47.125 24.9619 47.125 23.9184 46.0816C22.875 45.0381 22.875 43.3587 22.875 40Z" stroke="#E5D443" stroke-width="1.2"/>
<path d="M24.75 46.75C28.0293 42.8312 31.7056 37.663 37.1231 41.1568" stroke="#E5D443" stroke-width="1.2"/>
</svg>
