<svg width="14" height="14" viewBox="0 0 14 14" fill="none" xmlns="http://www.w3.org/2000/svg">
<g id="youtube">
<path id="Vector" d="M6.99984 11.9582C8.0555 11.9582 9.06781 11.8539 10.006 11.6627C11.1778 11.4238 11.7638 11.3043 12.2985 10.6169C12.8332 9.9294 12.8332 9.14026 12.8332 7.56188V6.4378C12.8332 4.85943 12.8332 4.07026 12.2985 3.3828C11.7638 2.69535 11.1778 2.57591 10.006 2.33703C9.06781 2.14579 8.0555 2.0415 6.99984 2.0415C5.94418 2.0415 4.93186 2.14579 3.99366 2.33703C2.82181 2.57591 2.23588 2.69535 1.70119 3.3828C1.1665 4.07026 1.1665 4.85943 1.1665 6.4378V7.56188C1.1665 9.14026 1.1665 9.9294 1.70119 10.6169C2.23588 11.3043 2.82181 11.4238 3.99366 11.6627C4.93186 11.8539 5.94418 11.9582 6.99984 11.9582Z" stroke="#F71756" stroke-width="1.2"/>
<path id="Vector_2" d="M9.31122 7.18269C9.22466 7.53607 8.76406 7.78988 7.84286 8.29755C6.84087 8.84962 6.3399 9.12571 5.93413 9.01937C5.7967 8.98332 5.67012 8.91997 5.56383 8.83405C5.25 8.58035 5.25 8.0536 5.25 7.00016C5.25 5.94672 5.25 5.41998 5.56383 5.16627C5.67012 5.08033 5.7967 5.017 5.93413 4.98098C6.3399 4.87462 6.84087 5.15067 7.84286 5.70279C8.76406 6.21045 9.22466 6.46425 9.31122 6.81764C9.34068 6.93792 9.34068 7.0624 9.31122 7.18269Z" stroke="#F71756" stroke-width="1.2" stroke-linejoin="round"/>
</g>
</svg>
