<svg width="14" height="14" viewBox="0 0 14 14" fill="none" xmlns="http://www.w3.org/2000/svg">
<g id="link-04">
<path id="Vector" d="M5.8335 7.71708C5.9161 7.85236 6.01415 7.9804 6.12761 8.09846C6.83199 8.83154 7.90561 8.94616 8.72543 8.44228C8.87733 8.34889 9.02048 8.23432 9.15103 8.09846L11.0407 6.13181C11.8755 5.2629 11.8755 3.85411 11.0407 2.98519C10.2058 2.11626 8.85213 2.11627 8.0172 2.98519L7.601 3.41837" stroke="#1B17EC" stroke-width="1.2" stroke-linecap="round"/>
<path id="Vector_2" d="M6.39951 10.5817L5.98312 11.015C5.14823 11.8839 3.79458 11.8839 2.95968 11.015C2.12477 10.146 2.12477 8.73728 2.95968 7.86835L4.84934 5.9017C5.68424 5.03277 7.03791 5.03276 7.87277 5.9017C7.98623 6.01971 8.08423 6.14775 8.16683 6.28296" stroke="#1B17EC" stroke-width="1.2" stroke-linecap="round"/>
</g>
</svg>
