<svg width="41" height="41" viewBox="0 0 41 41" fill="none" xmlns="http://www.w3.org/2000/svg">
<g id="tick-double-03">
<path id="Vector" d="M12.7104 30.6546C12.1648 31.1125 11.6923 31.3395 11.2004 31.3346C10.0668 31.3231 9.12251 30.1636 7.23396 27.8448L4.70901 24.7443C3.6692 23.4676 3.54198 21.5666 4.40038 20.1321C5.38091 18.4936 7.2614 18.0346 8.72695 18.8568M18.7038 14.668C20.0223 13.2777 21.4293 11.8883 22.964 10.4793C23.7043 9.79952 24.6272 9.55876 25.5002 9.71266" stroke="#1FD031" stroke-width="2.5" stroke-linecap="round"/>
<path id="Vector_2" d="M24.0093 27.6863C27.7758 23.3206 31.4118 20.359 35.9792 16.1649C37.3462 14.9096 37.5573 12.7091 36.4848 11.1501C35.3452 9.49325 33.1793 9.16208 31.7135 10.4793C27.5298 14.2386 24.275 17.8581 21.1875 21.727C21.0255 21.93 20.9445 22.0315 20.8603 22.0886C20.6472 22.2335 20.3807 22.2351 20.1662 22.0926C20.0815 22.0365 20.0003 21.9368 19.838 21.7378L18.1928 19.7198C16.6916 17.8785 13.9991 18.0823 12.7457 20.1321C11.8686 21.5666 11.9986 23.4676 13.0611 24.7443L15.641 27.8448C17.5707 30.1636 18.5355 31.3231 19.6938 31.3346C20.8522 31.346 21.9045 30.126 24.0093 27.6863Z" stroke="#1FD031" stroke-width="2.5"/>
</g>
</svg>
