<svg width="60" height="60" viewBox="0 0 60 60" fill="none" xmlns="http://www.w3.org/2000/svg">
<rect width="60" height="60" rx="4" fill="#1B17EC" fill-opacity="0.1"/>
<path d="M22.7701 34.6422C20.8837 35.7654 15.9378 38.0589 18.9502 40.9289C20.4218 42.3307 22.0607 43.3334 24.1212 43.3334H35.8788C37.9393 43.3334 39.5783 42.3307 41.0497 40.9289C44.0621 38.0589 39.1163 35.7654 37.2299 34.6422C32.8064 32.0082 27.1936 32.0082 22.7701 34.6422Z" stroke="#1B17EC" stroke-width="2" stroke-linecap="round" stroke-linejoin="round"/>
<path d="M36 22.6667C36 25.9804 33.3137 28.6667 30 28.6667C26.6863 28.6667 24 25.9804 24 22.6667C24 19.353 26.6863 16.6667 30 16.6667C33.3137 16.6667 36 19.353 36 22.6667Z" stroke="#1B17EC" stroke-width="2"/>
</svg>
