<svg width="60" height="60" viewBox="0 0 60 60" fill="none" xmlns="http://www.w3.org/2000/svg">
<rect width="60" height="60" rx="4" fill="#F61DB9" fill-opacity="0.1"/>
<path d="M33.2274 39.0395C32.7856 39.0395 32.4274 38.6813 32.4274 38.2395V22.7999C32.4274 22.3581 32.7856 21.9999 33.2274 21.9999H38.5011C39.8268 21.9999 40.925 22.2412 41.7959 22.7238C42.6667 23.2064 43.3184 23.8664 43.7511 24.704C44.1837 25.536 44.4 26.4734 44.4 27.5162C44.4 28.5645 44.1809 29.5074 43.7428 30.345C43.3101 31.177 42.6556 31.837 41.7792 32.3252C40.9084 32.8077 39.8129 33.049 38.4928 33.049H35.1161C34.6743 33.049 34.3161 32.6908 34.3161 32.249V31.6691C34.3161 31.2273 34.6743 30.8691 35.1161 30.8691H38.2598C39.0974 30.8691 39.7768 30.7249 40.2982 30.4365C40.8196 30.1425 41.2024 29.7432 41.4464 29.2384C41.6905 28.7337 41.8125 28.1596 41.8125 27.5162C41.8125 26.8727 41.6905 26.3014 41.4464 25.8022C41.2024 25.303 40.8169 24.912 40.2899 24.6291C39.7685 24.3462 39.0807 24.2048 38.2265 24.2048H35.7983C35.3565 24.2048 34.9983 24.5629 34.9983 25.0048V38.2395C34.9983 38.6813 34.6402 39.0395 34.1983 39.0395H33.2274Z" fill="#F61DB9"/>
<path d="M18.1635 21.9999C18.442 21.9999 18.7005 22.1448 18.8459 22.3825L22.654 28.6075C22.6756 28.6428 22.714 28.6643 22.7553 28.6643C22.7967 28.6643 22.835 28.6428 22.8566 28.6075L26.6647 22.3825C26.8101 22.1448 27.0686 21.9999 27.3471 21.9999H28.4363C29.0641 21.9999 29.4473 22.6901 29.1153 23.223L24.8335 30.0953C24.6717 30.355 24.6722 30.6841 24.8347 30.9433L29.1426 37.8145C29.4766 38.3473 29.0936 39.0395 28.4648 39.0395H27.3596C27.0833 39.0395 26.8266 38.8969 26.6805 38.6624L22.8571 32.5231C22.8352 32.488 22.7967 32.4666 22.7553 32.4666C22.7139 32.4666 22.6754 32.488 22.6536 32.5231L18.8301 38.6624C18.684 38.8969 18.4273 39.0395 18.151 39.0395H17.059C16.4274 39.0395 16.0449 38.3419 16.3845 37.8093L20.7596 30.9485C20.9265 30.6868 20.9269 30.3523 20.7608 30.0901L16.4118 23.2282C16.0742 22.6956 16.4569 21.9999 17.0875 21.9999H18.1635Z" fill="#F61DB9"/>
</svg>
