<svg width="16" height="16" viewBox="0 0 16 16" fill="none" xmlns="http://www.w3.org/2000/svg">
<g id="upload-03">
<path id="Vector" d="M4.625 6.6665C4.16438 6.6699 3.88721 6.68404 3.66643 6.7425C2.66162 7.00857 1.97369 7.9091 2.00077 8.92297C2.00862 9.21664 2.12041 9.57957 2.344 10.3055C2.88209 12.0525 3.78642 13.5691 5.8123 13.933C6.18469 13.9998 6.60374 13.9998 7.44183 13.9998H8.55817C9.39623 13.9998 9.8153 13.9998 10.1877 13.933C12.2136 13.5691 13.1179 12.0525 13.656 10.3055C13.8796 9.57957 13.9914 9.21664 13.9992 8.92297C14.0263 7.9091 13.3384 7.00857 12.3336 6.7425C12.1128 6.68404 11.8356 6.6699 11.375 6.6665" stroke="white" stroke-width="1.2" stroke-linecap="round"/>
<path id="Vector_2" d="M8.0002 2V9.33333M8.0002 2C8.3124 2 8.54973 2.29207 9.02446 2.8762L9.66686 3.66667M8.0002 2C7.68793 2 7.4506 2.29207 6.97586 2.8762L6.3335 3.66667" stroke="white" stroke-width="1.2" stroke-linecap="round" stroke-linejoin="round"/>
</g>
</svg>
