<svg width="41" height="40" viewBox="0 0 41 40" fill="none" xmlns="http://www.w3.org/2000/svg">
<g id="zip-01">
<path id="Vector" d="M6.33325 21.6654V20.3259C6.33325 15.3802 6.33325 12.9074 7.11482 10.9324C8.37127 7.75733 11.0285 5.2529 14.3972 4.06866C16.4926 3.33203 19.1163 3.33203 24.3636 3.33203C27.3621 3.33203 28.8613 3.33203 30.0586 3.75296C31.9836 4.42966 33.5019 5.86078 34.2199 7.6751C34.6666 8.80365 34.6666 10.2167 34.6666 13.0427V20.0224V21.6654" stroke="#533E59" stroke-width="2.5" stroke-linecap="round" stroke-linejoin="round"/>
<path id="Vector_2" d="M6.33325 19.9987C6.33325 16.9305 8.82055 14.4431 11.8888 14.4431C12.9985 14.4431 14.3067 14.6376 15.3855 14.3485C16.3441 14.0916 17.0929 13.3429 17.3498 12.3843C17.6388 11.3054 17.4444 9.99723 17.4444 8.88758C17.4444 5.81933 19.9318 3.33203 22.9999 3.33203" stroke="#533E59" stroke-width="2.5" stroke-linecap="round" stroke-linejoin="round"/>
<path id="Vector_3" d="M6.33325 26.668H11.9999C12.4119 26.668 12.6471 27.1383 12.3999 27.468L6.69992 35.068C6.20549 35.7271 6.67587 36.668 7.49992 36.668H12.9999M17.9999 26.668H20.9166M20.9166 26.668H23.8333M20.9166 26.668V36.1325M17.9999 36.668H23.8333M28.8333 36.668V26.668H31.9363C33.1124 26.668 34.3294 27.254 34.5819 28.4026C34.6879 28.8846 34.6847 29.341 34.5812 29.8218C34.3226 31.0243 33.0653 31.668 31.8353 31.668H30.4999" stroke="#533E59" stroke-width="2.5" stroke-linecap="round" stroke-linejoin="round"/>
</g>
</svg>
