<svg width="36" height="36" viewBox="0 0 36 36" fill="none" xmlns="http://www.w3.org/2000/svg">
<rect width="36" height="36" rx="18" fill="#F3F3F3"/>
<path d="M24.6667 26.3336V22.1669C24.6667 20.5956 24.6667 19.8099 24.1785 19.3217C23.6904 18.8336 22.9047 18.8336 21.3334 18.8336L18 26.3336L14.6667 18.8336C13.0954 18.8336 12.3097 18.8336 11.8215 19.3217C11.3334 19.8099 11.3334 20.5956 11.3334 22.1669V26.3336" stroke="#533E59" stroke-width="1.2" stroke-linecap="round" stroke-linejoin="round"/>
<path d="M18 20.5L17.5833 23.8333L18 25.0833L18.4166 23.8333L18 20.5ZM18 20.5L17.1666 18.8333H18.8333L18 20.5Z" stroke="#533E59" stroke-width="1.2" stroke-linecap="round" stroke-linejoin="round"/>
<path d="M20.9167 13.4167V12.5834C20.9167 10.9726 19.6109 9.66675 18 9.66675C16.3892 9.66675 15.0834 10.9726 15.0834 12.5834V13.4167C15.0834 15.0276 16.3892 16.3334 18 16.3334C19.6109 16.3334 20.9167 15.0276 20.9167 13.4167Z" stroke="#533E59" stroke-width="1.2" stroke-linecap="round" stroke-linejoin="round"/>
</svg>
