<svg width="36" height="36" viewBox="0 0 36 36" fill="none" xmlns="http://www.w3.org/2000/svg">
<rect width="36" height="36" rx="18" fill="#F3F3F3"/>
<path d="M12.2986 17.5759C12.2374 18.7392 12.3078 19.9775 11.2684 20.757C10.7847 21.1199 10.5 21.6892 10.5 22.2939C10.5 23.1257 11.1515 23.8334 12 23.8334H24C24.8485 23.8334 25.5 23.1257 25.5 22.2939C25.5 21.6892 25.2153 21.1199 24.7316 20.757C23.6922 19.9775 23.7626 18.7392 23.7013 17.5759C23.5418 14.5435 21.0365 12.1667 18 12.1667C14.9635 12.1667 12.4582 14.5435 12.2986 17.5759Z" stroke="#533E59" stroke-width="1.5" stroke-linecap="round" stroke-linejoin="round"/>
<path d="M16.75 10.6042C16.75 11.2945 17.3097 12.1667 18 12.1667C18.6903 12.1667 19.25 11.2945 19.25 10.6042C19.25 9.91383 18.6903 9.66669 18 9.66669C17.3097 9.66669 16.75 9.91383 16.75 10.6042Z" stroke="#533E59" stroke-width="1.5"/>
<path d="M20.5 23.8333C20.5 25.2141 19.3807 26.3333 18 26.3333C16.6192 26.3333 15.5 25.2141 15.5 23.8333" stroke="#533E59" stroke-width="1.5" stroke-linecap="round" stroke-linejoin="round"/>
</svg>
