<svg width="36" height="36" viewBox="0 0 36 36" fill="none" xmlns="http://www.w3.org/2000/svg">
<rect width="36" height="36" rx="18" fill="#F3F3F3"/>
<path d="M25.7646 13.9511L25.3533 13.2373C25.0422 12.6974 24.8867 12.4275 24.622 12.3199C24.3574 12.2122 24.058 12.2972 23.4595 12.467L22.4426 12.7535C22.0605 12.8416 21.6595 12.7916 21.3105 12.6123L21.0298 12.4503C20.7305 12.2587 20.5004 11.9761 20.373 11.6439L20.0947 10.8128C19.9117 10.2628 19.8202 9.98776 19.6024 9.83046C19.3846 9.67316 19.0953 9.67316 18.5166 9.67316H17.5876C17.009 9.67316 16.7197 9.67316 16.5019 9.83046C16.2841 9.98776 16.1926 10.2628 16.0096 10.8128L15.7313 11.6439C15.6039 11.9761 15.3737 12.2587 15.0745 12.4503L14.7938 12.6123C14.4448 12.7916 14.0439 12.8416 13.6617 12.7535L12.6448 12.467C12.0462 12.2972 11.7469 12.2122 11.4823 12.3199C11.2176 12.4275 11.0621 12.6974 10.751 13.2373L10.3397 13.9511C10.0481 14.4572 9.90229 14.7102 9.93059 14.9796C9.95888 15.2489 10.1541 15.466 10.5444 15.9001L11.4036 16.8606C11.6136 17.1265 11.7627 17.5898 11.7627 18.0064C11.7627 18.4231 11.6137 18.8863 11.4036 19.1522L10.5444 20.1128C10.1541 20.547 9.95889 20.764 9.93059 21.0334C9.90229 21.3027 10.0481 21.5557 10.3397 22.0617L10.751 22.7756C11.0621 23.3154 11.2176 23.5854 11.4823 23.693C11.7469 23.8006 12.0462 23.7157 12.6448 23.5458L13.6617 23.2594C14.0439 23.1712 14.4449 23.2213 14.7939 23.4006L15.0746 23.5626C15.3738 23.7543 15.6039 24.0368 15.7313 24.369L16.0096 25.2002C16.1926 25.7502 16.2841 26.0252 16.5019 26.1826C16.7197 26.3398 17.009 26.3398 17.5876 26.3398H18.5166C19.0953 26.3398 19.3846 26.3398 19.6024 26.1826C19.8202 26.0252 19.9117 25.7502 20.0947 25.2002L20.373 24.369C20.5004 24.0368 20.7305 23.7543 21.0297 23.5626L21.3104 23.4006C21.6594 23.2213 22.0604 23.1712 22.4426 23.2594L23.4595 23.5458C24.058 23.7157 24.3574 23.8006 24.622 23.693C24.8867 23.5854 25.0422 23.3154 25.3533 22.7756L25.7646 22.0617C26.0562 21.5557 26.202 21.3027 26.1737 21.0334C26.1454 20.764 25.9502 20.547 25.5599 20.1128L24.7006 19.1522C24.4906 18.8863 24.3415 18.4231 24.3415 18.0064C24.3415 17.5898 24.4907 17.1265 24.7006 16.8606L25.5599 15.9001C25.9502 15.466 26.1454 15.2489 26.1737 14.9796C26.202 14.7102 26.0562 14.4572 25.7646 13.9511Z" stroke="#533E59" stroke-width="1.5" stroke-linecap="round"/>
<path d="M20.9329 18C20.9329 19.6108 19.6271 20.9166 18.0163 20.9166C16.4054 20.9166 15.0996 19.6108 15.0996 18C15.0996 16.3891 16.4054 15.0833 18.0163 15.0833C19.6271 15.0833 20.9329 16.3891 20.9329 18Z" stroke="#533E59" stroke-width="1.5"/>
</svg>
