<svg width="36" height="36" viewBox="0 0 36 36" fill="none" xmlns="http://www.w3.org/2000/svg">
<rect width="36" height="36" rx="18" fill="#F3F3F3"/>
<path d="M22.1666 17.0038C22.1666 16.7157 22.1666 16.5717 22.21 16.4433C22.336 16.0704 22.6681 15.9256 23.0009 15.7741C23.375 15.6037 23.562 15.5185 23.7473 15.5035C23.9577 15.4865 24.1685 15.5318 24.3483 15.6327C24.5867 15.7665 24.753 16.0208 24.9232 16.2275C25.7094 17.1823 26.1024 17.6598 26.2462 18.1863C26.3623 18.6112 26.3623 19.0555 26.2462 19.4803C26.0365 20.2482 25.3737 20.892 24.8831 21.4878C24.6322 21.7926 24.5067 21.945 24.3483 22.0339C24.1685 22.1348 23.9577 22.1802 23.7473 22.1632C23.562 22.1482 23.375 22.063 23.0009 21.8926C22.6681 21.741 22.336 21.5963 22.21 21.2233C22.1666 21.095 22.1666 20.951 22.1666 20.6629V17.0038Z" stroke="#533E59" stroke-width="1.5"/>
<path d="M13.8333 17.0038C13.8333 16.6412 13.8231 16.3152 13.5299 16.0602C13.4232 15.9674 13.2818 15.903 12.9991 15.7742C12.625 15.6038 12.4379 15.5186 12.2526 15.5036C11.6966 15.4587 11.3974 15.8382 11.0767 16.2277C10.2906 17.1825 9.89751 17.6599 9.75368 18.1864C9.63761 18.6113 9.63761 19.0557 9.75368 19.4805C9.96346 20.2484 10.6262 20.8921 11.1168 21.488C11.426 21.8636 11.7214 22.2063 12.2526 22.1633C12.4379 22.1483 12.625 22.0631 12.9991 21.8928C13.2818 21.7639 13.4232 21.6995 13.5299 21.6068C13.8231 21.3518 13.8333 21.0258 13.8333 20.6631V17.0038Z" stroke="#533E59" stroke-width="1.5"/>
<path d="M12.1666 15.5C12.1666 12.7386 14.7783 10.5 18 10.5C21.2216 10.5 23.8333 12.7386 23.8333 15.5" stroke="#533E59" stroke-width="1.5" stroke-linecap="square" stroke-linejoin="round"/>
<path d="M23.8334 22.1667V22.8334C23.8334 24.3061 22.341 25.5 20.5 25.5H18.8334" stroke="#533E59" stroke-width="1.5" stroke-linecap="round" stroke-linejoin="round"/>
</svg>
