<svg width="36" height="36" viewBox="0 0 36 36" fill="none" xmlns="http://www.w3.org/2000/svg">
<rect width="36" height="36" rx="18" fill="#F3F3F3"/>
<path d="M17.5834 19.6764C15.8778 19.597 14.1528 20.0054 12.648 20.9014C11.469 21.6034 8.37783 23.0368 10.2606 24.8305C11.1803 25.7067 12.2046 26.3334 13.4924 26.3334H18" stroke="#533E59" stroke-width="1.5" stroke-linecap="round" stroke-linejoin="round"/>
<path d="M20.9167 13.4167C20.9167 15.4878 19.2378 17.1667 17.1667 17.1667C15.0956 17.1667 13.4167 15.4878 13.4167 13.4167C13.4167 11.3456 15.0956 9.66669 17.1667 9.66669C19.2378 9.66669 20.9167 11.3456 20.9167 13.4167Z" stroke="#533E59" stroke-width="1.5"/>
<path d="M23 25.2619V26.3333M23 25.2619C22.036 25.2619 21.1868 24.7884 20.6886 24.0694M23 25.2619C23.964 25.2619 24.8133 24.7884 25.3114 24.0694M20.6886 24.0694L19.667 24.7261M20.6886 24.0694C20.394 23.6441 20.2223 23.1331 20.2223 22.5833C20.2223 22.0336 20.3939 21.5226 20.6885 21.0974M25.3114 24.0694L26.333 24.7261M25.3114 24.0694C25.606 23.6441 25.7778 23.1331 25.7778 22.5833C25.7778 22.0336 25.6061 21.5226 25.3115 21.0974M23 19.9047C23.9641 19.9047 24.8134 20.3783 25.3115 21.0974M23 19.9047C22.0359 19.9047 21.1866 20.3783 20.6885 21.0974M23 19.9047V18.8333M25.3115 21.0974L26.3334 20.4405M20.6885 21.0974L19.6667 20.4405" stroke="#533E59" stroke-width="1.5" stroke-linecap="round"/>
</svg>
