<svg width="36" height="36" viewBox="0 0 36 36" fill="none" xmlns="http://www.w3.org/2000/svg">
<circle cx="18" cy="18" r="18" fill="#F3F3F3"/>
<path d="M18 26.3334C22.6023 26.3334 26.3333 22.6024 26.3333 18C26.3333 13.3976 22.6023 9.66669 18 9.66669C13.3976 9.66669 9.66663 13.3976 9.66663 18C9.66663 22.6024 13.3976 26.3334 18 26.3334Z" stroke="#533E59" stroke-width="1.5"/>
<path d="M14.25 22.1666C16.1931 20.1315 19.786 20.0356 21.75 22.1666M20.0792 15.9166C20.0792 17.0672 19.1452 18 17.9929 18C16.8407 18 15.9066 17.0672 15.9066 15.9166C15.9066 14.7661 16.8407 13.8333 17.9929 13.8333C19.1452 13.8333 20.0792 14.7661 20.0792 15.9166Z" stroke="#533E59" stroke-width="1.5" stroke-linecap="round"/>
</svg>
