<svg width="36" height="36" viewBox="0 0 36 36" fill="none" xmlns="http://www.w3.org/2000/svg">
<rect width="36" height="36" rx="18" fill="#F3F3F3"/>
<path d="M20.0171 23.6497C19.741 23.6497 19.5171 23.4258 19.5171 23.1497V13.5C19.5171 13.2239 19.741 13 20.0171 13H23.3132C24.1417 13 24.8281 13.1508 25.3724 13.4524C25.9167 13.754 26.324 14.1665 26.5944 14.69C26.8648 15.21 27 15.7959 27 16.4476C27 17.1028 26.8631 17.6922 26.5892 18.2157C26.3188 18.7357 25.9097 19.1482 25.362 19.4533C24.8177 19.7549 24.133 19.9057 23.308 19.9057H21.1975C20.9214 19.9057 20.6975 19.6818 20.6975 19.4057V19.0433C20.6975 18.7671 20.9214 18.5433 21.1975 18.5433H23.1624C23.6858 18.5433 24.1105 18.4531 24.4364 18.2729C24.7622 18.0891 25.0014 17.8395 25.154 17.524C25.3065 17.2086 25.3828 16.8498 25.3828 16.4476C25.3828 16.0455 25.3065 15.6884 25.154 15.3764C25.0014 15.0644 24.7605 14.82 24.4312 14.6432C24.1053 14.4664 23.6754 14.378 23.1416 14.378H21.6239C21.3478 14.378 21.1239 14.6019 21.1239 14.878V23.1497C21.1239 23.4258 20.9001 23.6497 20.6239 23.6497H20.0171Z" fill="#533E59"/>
<path d="M10.6022 13C10.7763 13 10.9378 13.0906 11.0287 13.2391L13.4087 17.1298C13.4222 17.1518 13.4462 17.1652 13.472 17.1652C13.4979 17.1652 13.5219 17.1518 13.5354 17.1298L15.9154 13.2391C16.0063 13.0906 16.1678 13 16.3419 13H17.0227C17.4151 13 17.6545 13.4314 17.447 13.7644L14.7709 18.0596C14.6698 18.2219 14.6701 18.4276 14.7717 18.5896L17.4641 22.8841C17.6729 23.2171 17.4335 23.6497 17.0405 23.6497H16.3497C16.177 23.6497 16.0166 23.5606 15.9253 23.414L13.5356 19.577C13.522 19.555 13.4979 19.5417 13.472 19.5417C13.4462 19.5417 13.4221 19.555 13.4085 19.577L11.0188 23.414C10.9275 23.5606 10.7671 23.6497 10.5944 23.6497H9.91186C9.5171 23.6497 9.27803 23.2137 9.49028 22.8809L12.2247 18.5929C12.329 18.4293 12.3293 18.2202 12.2255 18.0564L9.50734 13.7677C9.29635 13.4348 9.53553 13 9.92966 13H10.6022Z" fill="#533E59"/>
</svg>
